<?xml version="1.0" encoding="UTF-8" standalone="no"?>
<!-- Created with Inkscape (http://www.inkscape.org/) -->

<svg
   version="1.1"
   id="svg1"
   width="327.67999"
   height="327.67999"
   viewBox="0 0 327.67999 327.67999"
   xmlns="http://www.w3.org/2000/svg"
   xmlns:svg="http://www.w3.org/2000/svg">
  <defs
     id="defs1" />
  <g
     id="g1">
    <path
       style="fill:currentColor"
       d="m 53.848879,216.46435 c -1.823459,-0.90866 -3.079314,-2.34992 -3.781276,-4.33949 -0.703875,-1.99499 -0.703875,-94.57474 0,-96.56973 0.701962,-1.98957 1.957817,-3.43082 3.781276,-4.33949 L 55.485659,110.4 h 26.434339 26.434342 l 1.63678,0.81564 c 1.82346,0.90867 3.07931,2.34992 3.78127,4.33949 0.70388,1.99499 0.70388,94.57474 0,96.56973 -0.70196,1.98957 -1.95781,3.43083 -3.78127,4.33949 L 108.35434,217.28 H 81.919998 55.485659 Z M 108.64,214.51405 c 2.37458,-1.27254 3.36,-3.08611 3.36,-6.18378 V 206.4 H 81.919998 51.839999 v 1.93027 c 0,3.78591 1.705487,6.02961 5.12,6.73577 0.616,0.12739 12.207999,0.20965 25.759999,0.18279 24.532802,-0.0486 24.645572,-0.0518 25.920002,-0.73478 z M 112,163.2 V 121.6 H 81.919998 51.839999 v 41.6 41.6 H 81.919998 112 Z m 0,-44.49028 c 0,-1.41976 -0.6817,-3.31156 -1.53221,-4.25206 -0.30128,-0.33317 -1.12379,-0.91444 -1.82779,-1.29171 -1.27782,-0.68478 -1.32338,-0.68595 -26.720002,-0.68595 -25.39662,0 -25.442182,10e-4 -26.719999,0.68595 -0.704,0.37727 -1.526508,0.95854 -1.827796,1.29171 -0.850505,0.9405 -1.532204,2.8323 -1.532204,4.25206 V 120 H 81.919998 112 Z M 218.56,209.76 v -1.12 h 7.3253 7.32531 l 0.18961,-0.72 c 0.10429,-0.396 0.6124,-2.268 1.12915,-4.16 l 0.93953,-3.44 -19.25445,-0.007 c -18.03534,-0.007 -19.3355,-0.0444 -20.53445,-0.59779 -1.48084,-0.68345 -2.53332,-1.735 -3.01869,-3.01602 -0.23346,-0.6162 -0.34131,-10.99944 -0.34131,-32.85919 0,-21.85976 0.10785,-32.24299 0.34131,-32.85917 0.48537,-1.28102 1.53785,-2.33257 3.01869,-3.01602 1.22671,-0.56617 3.31145,-0.59076 50.07999,-0.59076 46.76855,0 48.85329,0.0246 50.08,0.59076 1.48084,0.68345 2.53332,1.735 3.01869,3.01602 0.47724,1.25957 0.47724,64.45876 0,65.71833 -0.48537,1.28102 -1.53785,2.33257 -3.01869,3.01602 -1.19895,0.55336 -2.49911,0.5912 -20.53445,0.59779 l -19.25446,0.007 0.93954,3.44 c 0.51675,1.892 1.02486,3.764 1.12915,4.16 l 0.18961,0.72 h 7.3253 7.32531 v 1.12 1.12 h -27.2 H 218.56 Z m 37.43999,-1.44247 c 0,-0.17736 -0.45577,-2.04936 -1.01284,-4.16 L 253.97431,200.32 h -8.21432 -8.21432 l -1.01284,3.83753 c -0.55706,2.11064 -1.01284,3.98264 -1.01284,4.16 0,0.2099 3.5744,0.32247 10.24,0.32247 6.66561,0 10.24,-0.11257 10.24,-0.32247 z m 38.87961,-10.55735 c 1.52218,-0.73687 2.26363,-2.01539 2.58835,-4.4632 l 0.21449,-1.61698 h -51.92245 -51.92245 l 0.2145,1.61698 c 0.32173,2.42527 1.06336,3.71423 2.56465,4.45737 1.2892,0.63816 1.82096,0.64514 49.12227,0.64539 47.16051,2.5e-4 47.83717,-0.009 49.14064,-0.63956 z M 297.52827,161.52 c -0.0851,-27.52234 -0.11078,-28.60361 -0.70763,-29.76019 -0.40599,-0.78672 -1.07469,-1.42061 -1.94104,-1.84 -1.30346,-0.631 -1.98039,-0.63981 -49.11961,-0.63981 -47.13921,0 -47.81615,0.009 -49.1196,0.63981 -0.86635,0.41939 -1.53505,1.05328 -1.94104,1.84 -0.59685,1.15658 -0.62256,2.23785 -0.70763,29.76019 l -0.0883,28.56 h 51.85655 51.85656 z m -167.44856,8.07971 -5.75528,-5.76195 5.80069,-5.80069 c 3.40039,-3.4004 5.94845,-5.70937 6.15778,-5.58 0.22199,0.1372 0.3571,1.3637 0.3571,3.24181 V 158.72 h 17.92 17.92 v -3.2 c 0,-1.76 0.1095,-3.2 0.24333,-3.2 0.13383,0 2.83233,2.592 5.99667,5.76 l 5.75333,5.76 -5.75333,5.76 c -3.16434,3.168 -5.86284,5.76 -5.99667,5.76 -0.13383,0 -0.24333,-1.44 -0.24333,-3.2 v -3.2 h -17.90842 -17.90841 l -0.0916,3.09406 c -0.0506,1.71049 -0.2358,3.1418 -0.41408,3.20083 -0.17738,0.0587 -2.91238,-2.48611 -6.07779,-5.65518 z"
       id="path1" />
  </g>
</svg>
