<?xml version="1.0" encoding="UTF-8" standalone="no"?>
<!-- Created with Inkscape (http://www.inkscape.org/) -->

<svg
   version="1.1"
   id="svg1"
   width="327.67999"
   height="327.67999"
   viewBox="0 0 327.67999 327.67999"
   xmlns="http://www.w3.org/2000/svg"
   xmlns:svg="http://www.w3.org/2000/svg">
  <defs
     id="defs1" />
  <g
     id="g1">
    <path
       style="fill:currentColor"
       d="m 112.41189,270.40599 c -6.11707,-0.6967 -11.86306,-6.56821 -12.592923,-12.86803 -0.353891,-3.0546 -0.353891,-184.341328 0,-187.395931 0.748683,-6.462202 6.420863,-12.134382 12.883063,-12.883061 3.05222,-0.353615 99.22371,-0.353615 102.27593,0 6.46221,0.748679 12.13439,6.420859 12.88307,12.883061 0.35389,3.054603 0.35389,184.341331 0,187.395931 -0.74868,6.46221 -6.42086,12.13439 -12.88307,12.88306 -2.79937,0.32433 -99.71124,0.31012 -102.56607,-0.015 z m 102.05235,-3.88078 c 2.28004,-0.47703 5.14361,-2.03069 6.49041,-3.52144 2.46977,-2.73374 3.46982,-6.11204 3.3047,-11.16378 l -0.0994,-3.04 H 163.84 103.52 l -0.0994,3.04 c -0.16485,5.04375 0.83542,8.43058 3.29343,11.15131 1.30939,1.44934 3.89301,2.91189 6.08593,3.44517 2.19687,0.53424 99.1305,0.61885 101.66424,0.0887 z m 9.77636,-103.89085 -0.0806,-83.434362 -60.19923,-0.09316 -60.19923,-0.09316 -0.1964,0.733161 c -0.10802,0.403239 -0.19836,37.905751 -0.20076,83.338921 -0.004,72.37561 0.0539,82.62811 0.4659,82.78622 0.25865,0.0993 19.94122,0.18923 43.73904,0.19995 23.79782,0.0107 43.30214,0.0529 43.34292,0.0938 0.0408,0.0409 7.57449,0.0358 16.74156,-0.0113 l 16.66741,-0.0856 z m -96.62116,45.85514 c -2.74495,-0.756 -5.32441,-2.71035 -6.97765,-5.28672 -1.64727,-2.56705 -1.91375,-4.17907 -1.91799,-11.60278 l -0.004,-6.64 h 1.89723 1.89724 l 0.10276,6.8 c 0.0964,6.38002 0.14923,6.89434 0.855,8.32761 0.95341,1.93617 2.18398,3.16674 4.12015,4.12015 1.43327,0.70578 1.94759,0.75858 8.32762,0.855 l 6.8,0.10277 v 1.89723 1.89724 l -6.8,-0.0286 c -4.48375,-0.0189 -7.31113,-0.16938 -8.30056,-0.44188 z M 184.96,207.06276 v -1.89723 l 6.8,-0.10277 c 6.38002,-0.0964 6.89434,-0.14922 8.32761,-0.855 1.93617,-0.95341 3.16674,-2.18398 4.12015,-4.12015 0.70578,-1.43327 0.75858,-1.94759 0.855,-8.32761 l 0.10277,-6.8 h 1.89723 1.89724 l -0.004,6.64 c -0.003,4.64533 -0.13751,7.14224 -0.44891,8.31191 -0.76957,2.89071 -2.65848,5.42835 -5.30451,7.1263 -2.56705,1.64727 -4.17907,1.91374 -11.60278,1.91799 l -6.64,0.004 z M 131.84,163.84 v -32 H 164 196.16 v 32 32 H 164 131.84 Z m 18.4,21.92 v -8.32 h -8.32 -8.32 l -0.0856,8.13764 c -0.0662,6.29565 0.006,8.19662 0.32,8.39819 0.22309,0.1433 4.00562,0.22536 8.40562,0.18236 l 8,-0.0782 z M 136,185.6 v -6.08 h 6.08 6.08 v 6.08 6.08 H 142.08 136 Z m 9.6,0 v -3.52 h -3.52 -3.52 v 3.52 3.52 h 3.52 3.52 z m 14.72,7.38027 c 0,-1.18733 0.0598,-1.26549 1.04,-1.36 0.94947,-0.0916 1.04864,-0.20473 1.13931,-1.30027 l 0.0993,-1.2 h -2.4193 -2.41931 v 1.28 c 0,1.24952 -0.0267,1.28 -1.12,1.28 h -1.12 v -2.4 -2.4 h -1.28 -1.28 v 3.68 3.68 h 3.68 3.68 z m 4.8,-0.0203 v -1.28 h -1.28 -1.28 v 1.28 1.28 h 1.28 1.28 z m 12.16,0 v -1.28 h -2.56 -2.56 v -1.28 -1.28 h 3.68 3.68 v 1.28 1.28 h 1.28 1.28 v 1.28 c 0,1.24952 0.0267,1.28 1.12,1.28 1.09333,0 1.12,-0.0305 1.12,-1.28 v -1.28 h 2.4 2.4 v 1.28 1.28 h 2.56 2.56 v -3.68 -3.68 h -1.28 -1.28 v 2.4 2.4 h -1.28 -1.28 v -1.28 c 0,-1.24953 -0.0267,-1.28 -1.12,-1.28 h -1.12 v -2.37973 -2.37972 l 1.04,-0.10028 c 0.91447,-0.0882 1.0521,-0.2258 1.14027,-1.14027 l 0.10028,-1.04 h 2.53972 2.53973 v -2.4 -2.4 h -1.28 -1.28 V 176 174.72 h 1.28 1.28 v -1.28 -1.28 h -1.28 -1.28 v 1.28 1.28 h -1.28 -1.28 v -1.28 c 0,-1.24953 -0.0267,-1.28 -1.12,-1.28 -1.09334,0 -1.12,0.0305 -1.12,1.28 0,1.24952 0.0267,1.28 1.12,1.28 h 1.12 v 3.68 3.68 H 188 186.88 v -2.4 -2.4 h -1.28 -1.28 v -2.56 -2.56 h -1.12 c -1.06667,0 -1.12,-0.0533 -1.12,-1.12 0,-1.09334 -0.0305,-1.12 -1.28,-1.12 h -1.28 v -1.28 c 0,-1.24953 -0.0267,-1.28 -1.12,-1.28 h -1.12 v -2.4 -2.4 h 1.12 c 1.09333,0 1.12,0.0305 1.12,1.28 0,1.27656 0.003,1.28 1.25972,1.28 1.18733,0 1.26549,0.0598 1.36,1.04 0.0887,0.91994 0.2111,1.04 1.06028,1.04 0.85333,0 0.96,-0.10667 0.96,-0.96 0,-0.84918 -0.12007,-0.97158 -1.04,-1.06028 -0.98023,-0.0945 -1.04,-0.17267 -1.04,-1.36 0,-1.25634 -0.003,-1.25972 -1.28,-1.25972 h -1.28 v -2.4 -2.4 h 1.28 c 1.24952,0 1.28,-0.0267 1.28,-1.12 0,-1.09334 -0.0305,-1.12 -1.28,-1.12 h -1.28 v -1.28 -1.28 h -2.39294 -2.39294 l -0.0871,-6 -0.0871,-6 -1.2,-0.0993 c -1.092,-0.0904 -1.2,-0.18398 -1.2,-1.04 V 138.88 h -2.4 -2.4 v 0.96 c 0,0.90666 0.0711,0.96 1.28,0.96 h 1.28 v 1.28 c 0,1.27673 -0.003,1.28 -1.26069,1.28 -1.2258,0 -1.26343,-0.0332 -1.36,-1.2 l -0.0993,-1.2 -2.32,-0.094 -2.32,-0.094 v -0.94598 c 0,-0.86779 -0.0926,-0.94598 -1.12,-0.94598 -1.03111,0 -1.12,0.0762 -1.12,0.96 0,0.88381 0.0889,0.96 1.12,0.96 h 1.12 v 2.4 2.4 h -2.4 -2.4 v -2.42028 -2.42027 l -1.04,0.10027 -1.04,0.10028 v 2.24 2.24 l 1.04,0.10027 1.04,0.10028 v 2.37972 2.37973 h 1.28 1.28 v 1.28 c 0,1.24952 0.0267,1.28 1.12,1.28 1.09033,0 1.12,0.0334 1.12,1.25972 0,1.18733 -0.0598,1.26549 -1.04,1.36 -0.91448,0.0882 -1.05211,0.2258 -1.14028,1.14028 -0.0942,0.97707 -0.17527,1.04 -1.33972,1.04 -1.16446,0 -1.24552,-0.0629 -1.33973,-1.04 -0.0887,-0.91994 -0.2111,-1.04 -1.06027,-1.04 -0.85334,0 -0.96,0.10666 -0.96,0.96 0,0.84917 0.12006,0.97157 1.04,1.06027 0.98023,0.0945 1.04,0.17268 1.04,1.36 V 160.32 h -2.4 -2.4 v -2.4 -2.4 h 1.28 1.28 v -3.69932 -3.69932 l -1.2,0.0993 -1.2,0.0993 -0.0939,2.31152 -0.0939,2.31153 -4.70615,0.0885 -4.70615,0.0885 -0.0993,1.2 c -0.0977,1.18056 -0.0809,1.2 1.04,1.2 1.08874,0 1.13932,0.0497 1.13932,1.12 v 1.12 h -2.4 -2.4 v -2.4 -2.4 h -3.68 -3.68 v 3.68 3.68 h 2.56 2.56 v 1.12 1.12 H 136 133.44 v 1.28 1.28 h 2.56 2.56 v 2.4 2.4 H 137.28 136 v -1.28 -1.28 h -1.28 -1.28 v 1.28 1.28 h 1.28 c 1.24952,0 1.28,0.0267 1.28,1.12 0,1.09333 -0.0305,1.12 -1.28,1.12 h -1.28 v 1.28 1.28 h 1.28 1.28 v -1.28 -1.28 h 2.4 2.4 v 1.28 1.28 h 4.8 4.8 v -1.28 -1.28 h 1.28 c 1.24952,0 1.28,-0.0267 1.28,-1.12 0,-1.09033 0.0334,-1.12 1.25972,-1.12 1.18733,0 1.26549,0.0598 1.36,1.04 l 0.10028,1.04 3.44,0.0908 3.44,0.0908 v 1.26917 c 0,1.23715 -0.0283,1.26918 -1.12,1.26918 -1.09334,0 -1.12,0.0305 -1.12,1.28 v 1.28 h -1.28 c -1.24953,0 -1.28,0.0267 -1.28,1.12 v 1.12 h 2.4 2.4 v 1.25972 c 0,1.18733 -0.0598,1.26549 -1.04,1.36 -0.91448,0.0882 -1.05211,0.2258 -1.14028,1.14028 -0.0945,0.98022 -0.17267,1.04 -1.36,1.04 -1.22635,0 -1.25972,-0.0297 -1.25972,-1.12 0,-1.06667 -0.0533,-1.12 -1.12,-1.12 h -1.12 v -3.68 -3.68 h -1.28856 -1.28855 l 0.0885,4.72 0.0886,4.72 1.18177,0.0982 c 1.11034,0.0923 1.1877,0.16965 1.28,1.28 L 155.68,186.72 h 3.36 3.36 l 0.094,-2.32 0.094,-2.32 h 2.38599 2.38598 v 2.4 2.4 h -1.12 c -1.03111,0 -1.12,0.0762 -1.12,0.96 0,0.88381 0.0889,0.96 1.12,0.96 1.03111,0 1.12,-0.0762 1.12,-0.96 v -0.96 h 2.4 2.4 V 188 c 0,1.06666 -0.0533,1.12 -1.12,1.12 -1.09334,0 -1.12,0.0305 -1.12,1.28 0,1.24952 0.0267,1.28 1.12,1.28 1.09333,0 1.12,0.0305 1.12,1.28 v 1.28 h 2.56 2.56 z m 4.8,-4.96 c 0,-1.09334 -0.0305,-1.12 -1.28,-1.12 h -1.28 v -1.28 -1.28 h 1.28 1.28 v 1.28 c 0,1.24952 0.0267,1.28 1.12,1.28 1.06666,0 1.12,0.0533 1.12,1.12 0,1.06666 -0.0533,1.12 -1.12,1.12 -1.06667,0 -1.12,-0.0533 -1.12,-1.12 z m 2.24,-4.8 c 0,-1.09334 0.0305,-1.12 1.28,-1.12 1.24952,0 1.28,0.0267 1.28,1.12 0,1.09333 -0.0305,1.12 -1.28,1.12 -1.24953,0 -1.28,-0.0267 -1.28,-1.12 z m -14.4,-2.4 c 0,-1.24953 0.0267,-1.28 1.12,-1.28 1.09333,0 1.12,0.0305 1.12,1.28 0,1.24952 -0.0267,1.28 -1.12,1.28 -1.09334,0 -1.12,-0.0305 -1.12,-1.28 z m 4.8,-2.4 v -3.68 h 3.68 3.68 v 3.68 3.68 h -3.68 -3.68 z m 4.64,0 c 0,-0.85236 -0.10716,-0.96 -0.95562,-0.96 -0.66745,0 -0.98923,0.1745 -1.06707,0.57869 -0.19989,1.03796 0.20529,1.55035 1.14087,1.44274 0.74392,-0.0856 0.88182,-0.25155 0.88182,-1.06143 z m -14.24,0 c 0,-1.06667 0.0533,-1.12 1.12,-1.12 1.09333,0 1.12,-0.0305 1.12,-1.28 0,-1.24953 -0.0267,-1.28 -1.12,-1.28 -1.09334,0 -1.12,-0.0305 -1.12,-1.28 v -1.28 h -1.28 c -1.24953,0 -1.28,-0.0267 -1.28,-1.12 v -1.12 h -2.4 -2.4 v -1.28 c 0,-1.24953 -0.0267,-1.28 -1.12,-1.28 h -1.12 v -2.4 -2.4 h 1.12 1.12 v 2.4 2.4 h 2.4 2.4 v -2.4 -2.4 h -1.12 c -1.06667,0 -1.12,-0.0533 -1.12,-1.12 0,-1.06667 0.0533,-1.12 1.12,-1.12 1.06666,0 1.12,0.0533 1.12,1.12 v 1.12 h 2.4 2.4 v 2.4 2.4 h 1.28 1.28 v -3.52 -3.52 h 1.12 1.12 v 7.2 7.2 h -1.12 c -1.09334,0 -1.12,0.0305 -1.12,1.28 v 1.28 h -1.28 c -1.24953,0 -1.28,0.0267 -1.28,1.12 0,1.06666 -0.0533,1.12 -1.12,1.12 -1.06667,0 -1.12,-0.0533 -1.12,-1.12 z m 2.17931,-9.84 c 0.0977,-1.18057 0.0809,-1.2 -1.04,-1.2 -1.11883,0 -1.13931,0.0234 -1.13931,1.30027 0,1.27421 0.0208,1.29827 1.04,1.2 0.94947,-0.0916 1.04864,-0.20473 1.13931,-1.30027 z M 140.8,171.04 c 0,-1.09334 0.0305,-1.12 1.28,-1.12 h 1.28 v -2.4 -2.4 h -2.4 -2.4 v -1.28 c 0,-1.24953 0.0267,-1.28 1.12,-1.28 1.06666,0 1.12,-0.0533 1.12,-1.12 0,-1.09334 0.0305,-1.12 1.28,-1.12 h 1.28 v 2.4 2.4 h 4.8 4.8 v 2.4 2.4 h -1.28 c -1.24953,0 -1.28,0.0267 -1.28,1.12 v 1.12 h -4.8 -4.8 z m 9.6,-2.4 c 0,-1.24953 -0.0267,-1.28 -1.12,-1.28 -1.056,0 -1.12,0.0609 -1.12,1.06666 0,1.30046 0.17221,1.49334 1.33333,1.49334 0.84444,0 0.90667,-0.0878 0.90667,-1.28 z m -2.24,-7.2 c 0,-1.09334 -0.0305,-1.12 -1.28,-1.12 h -1.28 v -1.28 -1.28 h 1.28 c 1.24952,0 1.28,-0.0267 1.28,-1.12 0,-1.06667 0.0533,-1.12 1.12,-1.12 1.06666,0 1.12,0.0533 1.12,1.12 0,1.06666 -0.0533,1.12 -1.12,1.12 -1.09334,0 -1.12,0.0305 -1.12,1.28 v 1.28 h 2.4 2.4 v 1.12 1.12 h -2.4 -2.4 z m 16.96,-2.4 c 0,-1.25386 0.0233,-1.28 1.14027,-1.28 1.0937,0 1.13618,-0.0425 1.04,-1.04 -0.0882,-0.91448 -0.2258,-1.05211 -1.14027,-1.14028 -0.98023,-0.0945 -1.04,-0.17267 -1.04,-1.36 0,-1.25634 -0.003,-1.25972 -1.28,-1.25972 h -1.28 v -1.28 c 0,-1.24953 -0.0267,-1.28 -1.12,-1.28 -1.06667,0 -1.12,-0.0533 -1.12,-1.12 0,-1.06667 0.0533,-1.12 1.12,-1.12 1.06666,0 1.12,0.0533 1.12,1.12 0,1.09333 0.0305,1.12 1.28,1.12 h 1.28 v -2.4 -2.4 h 1.12 1.12 v 2.4 2.4 h 1.28 c 1.24952,0 1.28,-0.0267 1.28,-1.12 0,-1.06667 0.0533,-1.12 1.12,-1.12 h 1.12 v 2.4 2.4 h 1.28 1.28 v 1.28 1.28 H 176 c 1.24952,0 1.28,0.0267 1.28,1.12 v 1.12 h -2.53973 -2.53972 l -0.10028,-1.04 c -0.0882,-0.91448 -0.2258,-1.05211 -1.14027,-1.14028 -0.99752,-0.0962 -1.04,-0.0537 -1.04,1.04 0,1.11699 -0.0261,1.14028 -1.28,1.14028 h -1.28 v 1.28 c 0,1.24952 -0.0267,1.28 -1.12,1.28 -1.09334,0 -1.12,-0.0305 -1.12,-1.28 z M 136,156.64 c 0,-1.09334 0.0305,-1.12 1.28,-1.12 1.24952,0 1.28,0.0267 1.28,1.12 0,1.09333 -0.0305,1.12 -1.28,1.12 -1.24953,0 -1.28,-0.0267 -1.28,-1.12 z m 50.88,12 v -1.28 h -1.28 -1.28 v 1.28 1.28 h 1.28 1.28 z m 7.36,0 v -1.28 h -1.28 -1.28 v 1.28 1.28 h 1.28 1.28 z m -2.61973,-2.48 c 0.0945,-0.98023 0.17267,-1.04 1.36,-1.04 H 194.24 v -2.4 -2.4 h -2.56 -2.56 v 1.12 c 0,1.06666 -0.0533,1.12 -1.12,1.12 -1.09334,0 -1.12,0.0305 -1.12,1.28 0,1.24952 0.0267,1.28 1.12,1.28 1.07028,0 1.12,0.0506 1.12,1.13931 0,1.12087 0.0194,1.13771 1.2,1.04 1.09554,-0.0907 1.20872,-0.18984 1.30027,-1.13931 z M 186.88,159.04 v -1.28 h -1.28 -1.28 v 1.28 1.28 h 1.28 1.28 z m 4.64,-2.4 c 0,-0.87835 -0.10207,-0.96845 -1.2,-1.05932 -1.18401,-0.098 -1.2,-0.0839 -1.2,1.05932 0,1.14319 0.016,1.15731 1.2,1.05931 1.09793,-0.0909 1.2,-0.18097 1.2,-1.05931 z m -2.72,-2.4 c 0,-1.20889 -0.0533,-1.28 -0.96,-1.28 -0.90667,0 -0.96,0.0711 -0.96,1.28 0,1.20889 0.0533,1.28 0.96,1.28 0.90666,0 0.96,-0.0711 0.96,-1.28 z m -38.56,-12.32 v -8.32 l -7.68,-0.0902 c -4.224,-0.0496 -8.004,-0.0108 -8.4,0.0861 l -0.72,0.17626 v 8.10057 c 0,4.45531 0.0984,8.19895 0.21861,8.31919 0.12024,0.12024 3.90024,0.18024 8.4,0.13333 L 150.24,150.24 Z M 136,142.08 V 136 h 6.08 6.08 v 6.08 6.08 H 142.08 136 Z m 9.6,0 v -3.52 h -3.52 -3.52 v 3.52 3.52 h 3.52 3.52 z M 194.16531,142 194.08,133.6 h -8.32 -8.32 l -0.0858,7.99423 c -0.0472,4.39682 -0.0157,8.17682 0.07,8.39999 0.12023,0.31333 2.05474,0.40578 8.49107,0.40578 h 8.33535 z m -14.43198,5.94666 c -0.11733,-0.11733 -0.21333,-2.85333 -0.21333,-6.08 V 136 h 6.08 6.08 v 6.08 6.08 h -5.86667 c -3.22667,0 -5.96267,-0.096 -6.08,-0.21334 z M 189.12,142.08 v -3.52 h -3.52 -3.52 v 3.52 3.52 h 3.52 3.52 z m -33.6,-2.24 c 0,-0.90667 -0.0711,-0.96 -1.28,-0.96 -1.20889,0 -1.28,0.0533 -1.28,0.96 0,0.90666 0.0711,0.96 1.28,0.96 1.20889,0 1.28,-0.0533 1.28,-0.96 z m 2.24,-2.56 V 136 h 1.28 1.28 v -1.28 -1.28 h -1.28 c -1.27657,0 -1.28,0.003 -1.28,1.25972 0,1.18733 -0.0598,1.26549 -1.04,1.36 -0.94948,0.0916 -1.04865,0.20473 -1.13932,1.30028 -0.0977,1.18056 -0.0809,1.2 1.04,1.2 1.11587,0 1.13932,-0.0264 1.13932,-1.28 z m 9.53931,0.08 c -0.0909,-1.09793 -0.18097,-1.2 -1.05931,-1.2 -0.87835,0 -0.96845,0.10207 -1.05932,1.2 -0.098,1.184 -0.0839,1.2 1.05932,1.2 1.14318,0 1.15731,-0.016 1.05931,-1.2 z m 2.62069,-2.64 v -1.28 h -1.28 -1.28 v 1.28 1.28 h 1.28 1.28 z m 4.8,0 v -1.28 h -1.28 -1.28 v 1.28 1.28 h 1.28 1.28 z m -55.9962,1.36 c 0.004,-7.42372 0.27072,-9.03574 1.91799,-11.60279 1.69794,-2.64602 4.23558,-4.53493 7.12629,-5.30451 1.16967,-0.3114 3.66658,-0.44625 8.31192,-0.4489 l 6.64,-0.004 v 1.89723 1.89724 l -6.8,0.10276 c -6.38003,0.0964 -6.89435,0.14923 -8.32762,0.855 -1.93617,0.95341 -3.16674,2.18398 -4.12015,4.12015 -0.70577,1.43327 -0.75858,1.94759 -0.855,8.32762 l -0.10276,6.8 H 120.61723 118.72 Z m 86.33896,-0.16 c -0.0964,-6.38003 -0.14922,-6.89435 -0.855,-8.32762 -0.95341,-1.93617 -2.18398,-3.16674 -4.12015,-4.12015 -1.43327,-0.70577 -1.94759,-0.75858 -8.32761,-0.855 l -6.8,-0.10276 V 120.61723 118.72 l 6.64,0.004 c 4.64533,0.003 7.14224,0.1375 8.31191,0.4489 2.89071,0.76958 5.42835,2.65849 7.1263,5.30451 1.64727,2.56705 1.91374,4.17907 1.91799,11.60279 l 0.004,6.64 h -1.89724 -1.89723 z m 19.25723,-61.509884 c 0,-6.990126 -3.70091,-11.967616 -9.85575,-13.255332 -2.3952,-0.501126 -98.85328,-0.501126 -101.24849,0 -6.08301,1.272688 -9.85575,6.274586 -9.85575,13.066729 0,1.349848 0.13081,1.92021 0.47027,2.050474 0.25865,0.09925 19.94122,0.189228 43.73904,0.199943 23.79782,0.01072 43.30214,0.05291 43.34292,0.09378 0.0408,0.04086 7.57421,0.03576 16.74096,-0.01134 l 16.6668,-0.08563 z"
       id="path1" />
  </g>
</svg>
