<?xml version="1.0" encoding="UTF-8" standalone="no"?>
<!-- Created with Inkscape (http://www.inkscape.org/) -->

<svg
   version="1.1"
   id="svg1"
   width="327.67999"
   height="327.67999"
   viewBox="0 0 327.67999 327.67999"
   xmlns="http://www.w3.org/2000/svg"
   xmlns:svg="http://www.w3.org/2000/svg">
  <defs
     id="defs1" />
  <g
     id="g1">
    <path
       style="fill:currentColor"
       d="m 136.32,257.59999 -26.4,-0.16 v -1.76 -1.76 l 14.6033,-0.0832 14.60331,-0.0832 0.15838,-0.7168 c 0.0871,-0.39424 0.6613,-2.5888 1.27598,-4.8768 2.00507,-7.46326 3.11903,-11.69514 3.11903,-11.849 0,-0.0831 -17.617,-0.151 -39.14889,-0.151 H 65.382221 l -1.938235,-0.96854 c -2.330522,-1.16458 -4.318587,-3.23356 -5.472657,-5.69541 l -0.85133,-1.81605 V 163.84 99.999998 l 0.85133,-1.816047 c 1.15407,-2.461847 3.142135,-4.53083 5.472657,-5.695406 l 1.938235,-0.968547 H 163.84 262.29777 l 1.93824,0.968547 c 2.33052,1.164576 4.31858,3.233559 5.47265,5.695406 l 0.85133,1.816047 V 163.84 227.67999 l -0.85133,1.81605 c -1.15407,2.46185 -3.14213,4.53083 -5.47265,5.69541 l -1.93824,0.96854 h -39.14889 c -21.53188,0 -39.14888,0.0679 -39.14888,0.151 0,0.15386 1.11396,4.38574 3.11902,11.849 0.61469,2.288 1.18888,4.48256 1.27599,4.8768 l 0.15837,0.7168 14.60331,0.0832 14.60331,0.0832 0.0968,1.68358 c 0.067,1.1644 -0.0317,1.73033 -0.32,1.83518 -0.65075,0.23666 -51.96409,0.33853 -81.21684,0.16124 z m 48.10608,-6.64 c -0.4146,-1.54 -1.26524,-4.744 -1.89032,-7.12 -0.62509,-2.376 -1.35356,-5.076 -1.61885,-6 l -0.48233,-1.68 H 163.84 147.24541 l -0.48233,1.68 c -0.26528,0.924 -0.99376,3.624 -1.61884,6 -0.62508,2.376 -1.47573,5.58 -1.89033,7.12 l -0.75381,2.8 h 21.3399 21.33989 z m 77.49391,-18.73809 c 2.49905,-1.16894 3.42776,-2.09517 4.50553,-4.49348 0.7258,-1.61507 0.91096,-2.55723 1.03148,-5.24842 l 0.14689,-3.28 H 163.84 60.076107 l 0.146309,3.28971 c 0.120307,2.70507 0.301656,3.62903 1.020436,5.19905 0.48077,1.05014 1.189806,2.24803 1.575637,2.66197 0.851509,0.91354 3.303363,2.19559 4.940205,2.58318 0.689237,0.16321 41.917636,0.26349 96.721306,0.23527 l 95.51999,-0.0492 z m 5.52429,-72.9419 -0.0843,-57.36 -0.89809,-1.920002 c -1.16389,-2.488244 -2.08623,-3.418175 -4.49348,-4.530472 l -1.96843,-0.909528 H 163.84 67.679998 l -1.96842,0.909528 c -2.407257,1.112297 -3.329597,2.042228 -4.493488,4.530472 l -0.898091,1.920002 -0.08429,57.36 -0.08429,57.36 H 163.84 267.52857 Z M 181.44,163.84 v -32 h 32.16 32.15999 v 32 32 H 213.6 181.44 Z m 18.4,21.92 v -8.32 h -8.32 -8.32 l -0.0856,8.13764 c -0.0662,6.29565 0.006,8.19662 0.32,8.39819 0.22309,0.1433 4.00562,0.22536 8.40562,0.18236 l 8,-0.0782 z M 185.6,185.6 v -6.08 h 6.08 6.08 v 6.08 6.08 h -6.08 -6.08 z m 9.6,0 v -3.52 h -3.52 -3.52 v 3.52 3.52 h 3.52 3.52 z m 14.72,7.38027 c 0,-1.18733 0.0598,-1.26549 1.04,-1.36 0.94947,-0.0916 1.04864,-0.20473 1.13931,-1.30027 l 0.0993,-1.2 h -2.4193 -2.41931 v 1.28 c 0,1.24952 -0.0267,1.28 -1.12,1.28 h -1.12 v -2.4 -2.4 h -1.28 -1.28 v 3.68 3.68 h 3.68 3.68 z m 4.8,-0.0203 v -1.28 h -1.28 -1.28 v 1.28 1.28 h 1.28 1.28 z m 12.15999,0 v -1.28 h -2.56 -2.55999 v -1.28 -1.28 h 3.67999 3.68 v 1.28 1.28 h 1.28 1.28 v 1.28 c 0,1.24952 0.0267,1.28 1.12,1.28 1.09334,0 1.12,-0.0305 1.12,-1.28 v -1.28 h 2.4 2.4 v 1.28 1.28 h 2.56 2.56 v -3.68 -3.68 h -1.28 -1.28 v 2.4 2.4 h -1.28 -1.28 v -1.28 c 0,-1.24953 -0.0267,-1.28 -1.12,-1.28 h -1.12 v -2.37973 -2.37972 l 1.04,-0.10028 c 0.91448,-0.0882 1.05211,-0.2258 1.14028,-1.14027 l 0.10027,-1.04 h 2.53973 2.53972 v -2.4 -2.4 h -1.28 -1.28 V 176 174.72 h 1.28 1.28 v -1.28 -1.28 h -1.28 -1.28 v 1.28 1.28 h -1.28 -1.28 v -1.28 c 0,-1.24953 -0.0267,-1.28 -1.12,-1.28 -1.09333,0 -1.12,0.0305 -1.12,1.28 0,1.24952 0.0267,1.28 1.12,1.28 h 1.12 v 3.68 3.68 h -1.12 -1.12 v -2.4 -2.4 h -1.28 -1.28 v -2.56 -2.56 h -1.12 c -1.06666,0 -1.12,-0.0533 -1.12,-1.12 0,-1.09334 -0.0305,-1.12 -1.28,-1.12 h -1.28 v -1.28 c 0,-1.24953 -0.0267,-1.28 -1.12,-1.28 h -1.12 v -2.4 -2.4 h 1.12 c 1.09334,0 1.12,0.0305 1.12,1.28 0,1.27656 0.003,1.28 1.25973,1.28 1.18733,0 1.26549,0.0598 1.36,1.04 0.0887,0.91994 0.2111,1.04 1.06027,1.04 0.85334,0 0.96,-0.10667 0.96,-0.96 0,-0.84918 -0.12006,-0.97158 -1.04,-1.06028 -0.98022,-0.0945 -1.04,-0.17267 -1.04,-1.36 0,-1.25634 -0.003,-1.25972 -1.28,-1.25972 h -1.28 v -2.4 -2.4 h 1.28 c 1.24953,0 1.28,-0.0267 1.28,-1.12 0,-1.09334 -0.0305,-1.12 -1.28,-1.12 h -1.28 v -1.28 -1.28 h -2.39293 -2.39294 l -0.0871,-6 -0.0871,-6 -1.19999,-0.0993 c -1.09201,-0.0904 -1.2,-0.18398 -1.2,-1.04 V 138.88 h -2.4 -2.4 v 0.96 c 0,0.90666 0.0711,0.96 1.28,0.96 h 1.28 v 1.28 c 0,1.27673 -0.003,1.28 -1.26069,1.28 -1.2258,0 -1.26343,-0.0332 -1.36,-1.2 l -0.0993,-1.2 -2.32,-0.094 -2.32,-0.094 v -0.94598 c 0,-0.86779 -0.0926,-0.94598 -1.12,-0.94598 -1.03112,0 -1.12,0.0762 -1.12,0.96 0,0.88381 0.0889,0.96 1.12,0.96 h 1.12 v 2.4 2.4 h -2.4 -2.4 v -2.42028 -2.42027 l -1.04,0.10027 -1.04,0.10028 v 2.24 2.24 l 1.04,0.10027 1.04,0.10028 v 2.37972 2.37973 h 1.28 1.28 v 1.28 c 0,1.24952 0.0267,1.28 1.12,1.28 1.09032,0 1.12,0.0334 1.12,1.25972 0,1.18733 -0.0598,1.26549 -1.04,1.36 -0.91448,0.0882 -1.05211,0.2258 -1.14028,1.14028 -0.0942,0.97707 -0.17527,1.04 -1.33972,1.04 -1.16446,0 -1.24552,-0.0629 -1.33973,-1.04 -0.0887,-0.91994 -0.2111,-1.04 -1.06027,-1.04 -0.85334,0 -0.96,0.10666 -0.96,0.96 0,0.84917 0.12006,0.97157 1.04,1.06027 0.98022,0.0945 1.04,0.17268 1.04,1.36 V 160.32 h -2.4 -2.4 v -2.4 -2.4 h 1.28 1.28 v -3.69932 -3.69932 l -1.2,0.0993 -1.2,0.0993 -0.0939,2.31152 -0.0939,2.31153 -4.70615,0.0885 -4.70615,0.0885 -0.0993,1.2 c -0.0977,1.18056 -0.0809,1.2 1.04,1.2 1.08874,0 1.13932,0.0497 1.13932,1.12 v 1.12 h -2.4 -2.4 v -2.4 -2.4 h -3.68 -3.68 v 3.68 3.68 h 2.56 2.56 v 1.12 1.12 h -2.56 -2.56 v 1.28 1.28 h 2.56 2.56 v 2.4 2.4 h -1.28 -1.28 v -1.28 -1.28 h -1.28 -1.28 v 1.28 1.28 h 1.28 c 1.24952,0 1.28,0.0267 1.28,1.12 0,1.09333 -0.0305,1.12 -1.28,1.12 h -1.28 v 1.28 1.28 h 1.28 1.28 v -1.28 -1.28 h 2.4 2.4 v 1.28 1.28 h 4.8 4.8 v -1.28 -1.28 h 1.28 c 1.24952,0 1.28,-0.0267 1.28,-1.12 0,-1.09033 0.0334,-1.12 1.25972,-1.12 1.18733,0 1.26549,0.0598 1.36,1.04 l 0.10028,1.04 3.44,0.0908 3.44,0.0908 v 1.26917 c 0,1.23715 -0.0283,1.26918 -1.12,1.26918 -1.09334,0 -1.12,0.0305 -1.12,1.28 v 1.28 h -1.28 c -1.24953,0 -1.28,0.0267 -1.28,1.12 v 1.12 h 2.4 2.4 v 1.25972 c 0,1.18733 -0.0598,1.26549 -1.04,1.36 -0.91448,0.0882 -1.05211,0.2258 -1.14028,1.14028 -0.0945,0.98022 -0.17267,1.04 -1.36,1.04 -1.22635,0 -1.25972,-0.0297 -1.25972,-1.12 0,-1.06667 -0.0533,-1.12 -1.12,-1.12 h -1.12 v -3.68 -3.68 h -1.28856 -1.28855 l 0.0885,4.72 0.0886,4.72 1.18177,0.0982 c 1.11034,0.0923 1.1877,0.16965 1.28,1.28 L 205.28,186.72 h 3.36 3.36 l 0.094,-2.32 0.094,-2.32 h 2.38598 2.38599 v 2.4 2.4 h -1.12 c -1.03112,0 -1.12,0.0762 -1.12,0.96 0,0.88381 0.0889,0.96 1.12,0.96 1.03111,0 1.12,-0.0762 1.12,-0.96 v -0.96 h 2.4 2.4 V 188 c 0,1.06666 -0.0533,1.12 -1.12,1.12 -1.09334,0 -1.12,0.0305 -1.12,1.28 0,1.24952 0.0267,1.28 1.12,1.28 1.09333,0 1.12,0.0305 1.12,1.28 v 1.28 h 2.55999 2.56 z m 4.8,-4.96 c 0,-1.09334 -0.0305,-1.12 -1.28,-1.12 h -1.28 v -1.28 -1.28 h 1.28 1.28 v 1.28 c 0,1.24952 0.0267,1.28 1.12,1.28 1.06667,0 1.12,0.0533 1.12,1.12 0,1.06666 -0.0533,1.12 -1.12,1.12 -1.06666,0 -1.12,-0.0533 -1.12,-1.12 z m 2.24,-4.8 c 0,-1.09334 0.0305,-1.12 1.28,-1.12 1.24953,0 1.28,0.0267 1.28,1.12 0,1.09333 -0.0305,1.12 -1.28,1.12 -1.24952,0 -1.28,-0.0267 -1.28,-1.12 z M 219.52,180.8 c 0,-1.24953 0.0267,-1.28 1.12,-1.28 1.09333,0 1.12,0.0305 1.12,1.28 0,1.24952 -0.0267,1.28 -1.12,1.28 -1.09334,0 -1.12,-0.0305 -1.12,-1.28 z m 4.79999,-2.4 v -3.68 h 3.68 3.68 v 3.68 3.68 h -3.68 -3.68 z m 4.64,0 c 0,-0.85236 -0.10715,-0.96 -0.95561,-0.96 -0.66746,0 -0.98923,0.1745 -1.06707,0.57869 -0.19989,1.03796 0.20529,1.55035 1.14087,1.44274 0.74392,-0.0856 0.88181,-0.25155 0.88181,-1.06143 z m -14.23999,0 c 0,-1.06667 0.0533,-1.12 1.12,-1.12 1.09333,0 1.12,-0.0305 1.12,-1.28 0,-1.24953 -0.0267,-1.28 -1.12,-1.28 -1.09334,0 -1.12,-0.0305 -1.12,-1.28 v -1.28 h -1.28 c -1.24953,0 -1.28,-0.0267 -1.28,-1.12 v -1.12 h -2.4 -2.4 v -1.28 c 0,-1.24953 -0.0267,-1.28 -1.12,-1.28 h -1.12 v -2.4 -2.4 h 1.12 1.12 v 2.4 2.4 h 2.4 2.4 v -2.4 -2.4 h -1.12 c -1.06667,0 -1.12,-0.0533 -1.12,-1.12 0,-1.06667 0.0533,-1.12 1.12,-1.12 1.06666,0 1.12,0.0533 1.12,1.12 v 1.12 h 2.4 2.4 v 2.4 2.4 h 1.28 1.28 v -3.52 -3.52 h 1.12 1.12 v 7.2 7.2 h -1.12 c -1.09334,0 -1.12,0.0305 -1.12,1.28 v 1.28 h -1.28 c -1.24953,0 -1.28,0.0267 -1.28,1.12 0,1.06666 -0.0533,1.12 -1.12,1.12 -1.06667,0 -1.12,-0.0533 -1.12,-1.12 z m 2.17931,-9.84 c 0.0977,-1.18057 0.0809,-1.2 -1.04,-1.2 -1.11883,0 -1.13931,0.0234 -1.13931,1.30027 0,1.27421 0.0208,1.29827 1.04,1.2 0.94947,-0.0916 1.04864,-0.20473 1.13931,-1.30027 z M 190.4,171.04 c 0,-1.09334 0.0305,-1.12 1.28,-1.12 h 1.28 v -2.4 -2.4 h -2.4 -2.4 v -1.28 c 0,-1.24953 0.0267,-1.28 1.12,-1.28 1.06666,0 1.12,-0.0533 1.12,-1.12 0,-1.09334 0.0305,-1.12 1.28,-1.12 h 1.28 v 2.4 2.4 h 4.8 4.8 v 2.4 2.4 h -1.28 c -1.24953,0 -1.28,0.0267 -1.28,1.12 v 1.12 h -4.8 -4.8 z m 9.6,-2.4 c 0,-1.24953 -0.0267,-1.28 -1.12,-1.28 -1.056,0 -1.12,0.0609 -1.12,1.06666 0,1.30046 0.17221,1.49334 1.33333,1.49334 0.84444,0 0.90667,-0.0878 0.90667,-1.28 z m -2.24,-7.2 c 0,-1.09334 -0.0305,-1.12 -1.28,-1.12 h -1.28 v -1.28 -1.28 h 1.28 c 1.24952,0 1.28,-0.0267 1.28,-1.12 0,-1.06667 0.0533,-1.12 1.12,-1.12 1.06666,0 1.12,0.0533 1.12,1.12 0,1.06666 -0.0533,1.12 -1.12,1.12 -1.09334,0 -1.12,0.0305 -1.12,1.28 v 1.28 h 2.4 2.4 v 1.12 1.12 h -2.4 -2.4 z m 16.96,-2.4 c 0,-1.25386 0.0233,-1.28 1.14027,-1.28 1.0937,0 1.13618,-0.0425 1.04,-1.04 -0.0882,-0.91448 -0.2258,-1.05211 -1.14027,-1.14028 -0.98023,-0.0945 -1.04,-0.17267 -1.04,-1.36 0,-1.25634 -0.003,-1.25972 -1.28,-1.25972 h -1.28 v -1.28 c 0,-1.24953 -0.0267,-1.28 -1.12,-1.28 -1.06667,0 -1.12,-0.0533 -1.12,-1.12 0,-1.06667 0.0533,-1.12 1.12,-1.12 1.06666,0 1.12,0.0533 1.12,1.12 0,1.09333 0.0305,1.12 1.28,1.12 h 1.28 v -2.4 -2.4 h 1.12 1.12 v 2.4 2.4 h 1.28 c 1.24952,0 1.28,-0.0267 1.28,-1.12 0,-1.06667 0.0533,-1.12 1.12,-1.12 h 1.12 v 2.4 2.4 h 1.28 1.27999 v 1.28 1.28 h 1.28 c 1.24953,0 1.28,0.0267 1.28,1.12 v 1.12 h -2.53972 -2.53973 l -0.10027,-1.04 c -0.0882,-0.91448 -0.2258,-1.05211 -1.14027,-1.14028 -0.99753,-0.0962 -1.04,-0.0537 -1.04,1.04 0,1.11699 -0.0262,1.14028 -1.28,1.14028 h -1.28 v 1.28 c 0,1.24952 -0.0267,1.28 -1.12,1.28 -1.09334,0 -1.12,-0.0305 -1.12,-1.28 z m -29.12,-2.4 c 0,-1.09334 0.0305,-1.12 1.28,-1.12 1.24952,0 1.28,0.0267 1.28,1.12 0,1.09333 -0.0305,1.12 -1.28,1.12 -1.24953,0 -1.28,-0.0267 -1.28,-1.12 z m 50.87999,12 v -1.28 h -1.28 -1.28 v 1.28 1.28 h 1.28 1.28 z m 7.36,0 v -1.28 h -1.28 -1.28 v 1.28 1.28 h 1.28 1.28 z m -2.61972,-2.48 c 0.0945,-0.98023 0.17267,-1.04 1.36,-1.04 h 1.25972 v -2.4 -2.4 h -2.56 -2.56 v 1.12 c 0,1.06666 -0.0533,1.12 -1.12,1.12 -1.09333,0 -1.12,0.0305 -1.12,1.28 0,1.24952 0.0267,1.28 1.12,1.28 1.07029,0 1.12,0.0506 1.12,1.13931 0,1.12087 0.0194,1.13771 1.2,1.04 1.09555,-0.0907 1.20873,-0.18984 1.30028,-1.13931 z m -4.74028,-7.12 v -1.28 h -1.28 -1.28 v 1.28 1.28 h 1.28 1.28 z m 4.64,-2.4 c 0,-0.87835 -0.10207,-0.96845 -1.2,-1.05932 -1.184,-0.098 -1.2,-0.0839 -1.2,1.05932 0,1.14319 0.016,1.15731 1.2,1.05931 1.09793,-0.0909 1.2,-0.18097 1.2,-1.05931 z m -2.72,-2.4 c 0,-1.20889 -0.0533,-1.28 -0.96,-1.28 -0.90666,0 -0.96,0.0711 -0.96,1.28 0,1.20889 0.0533,1.28 0.96,1.28 0.90667,0 0.96,-0.0711 0.96,-1.28 z M 199.84,141.92 v -8.32 l -7.68,-0.0902 c -4.224,-0.0496 -8.004,-0.0108 -8.4,0.0861 l -0.72,0.17626 v 8.10057 c 0,4.45531 0.0984,8.19895 0.21861,8.31919 0.12024,0.12024 3.90024,0.18024 8.4,0.13333 L 199.84,150.24 Z m -14.24,0.16 V 136 h 6.08 6.08 v 6.08 6.08 h -6.08 -6.08 z m 9.6,0 v -3.52 h -3.52 -3.52 v 3.52 3.52 h 3.52 3.52 z m 48.56531,-0.08 -0.0853,-8.4 h -8.32 -8.32 l -0.0857,7.99423 c -0.0472,4.39682 -0.0157,8.17682 0.07,8.39999 0.12023,0.31333 2.05474,0.40578 8.49106,0.40578 h 8.33536 z m -14.43198,5.94666 c -0.11734,-0.11733 -0.21334,-2.85333 -0.21334,-6.08 V 136 h 6.08 6.08 v 6.08 6.08 h -5.86666 c -3.22667,0 -5.96267,-0.096 -6.08,-0.21334 z m 9.38666,-5.86666 v -3.52 h -3.52 -3.52 v 3.52 3.52 h 3.52 3.52 z M 205.12,139.84 c 0,-0.90667 -0.0711,-0.96 -1.28,-0.96 -1.20889,0 -1.28,0.0533 -1.28,0.96 0,0.90666 0.0711,0.96 1.28,0.96 1.20888,0 1.28,-0.0533 1.28,-0.96 z m 2.24,-2.56 V 136 h 1.28 1.28 v -1.28 -1.28 h -1.28 c -1.27657,0 -1.28,0.003 -1.28,1.25972 0,1.18733 -0.0598,1.26549 -1.04,1.36 -0.94948,0.0916 -1.04865,0.20473 -1.13932,1.30028 -0.0977,1.18056 -0.0809,1.2 1.04,1.2 1.11587,0 1.13932,-0.0264 1.13932,-1.28 z m 9.53931,0.08 c -0.0909,-1.09793 -0.18097,-1.2 -1.05931,-1.2 -0.87835,0 -0.96845,0.10207 -1.05932,1.2 -0.098,1.184 -0.0839,1.2 1.05932,1.2 1.14318,0 1.1573,-0.016 1.05931,-1.2 z m 2.62069,-2.64 v -1.28 h -1.28 -1.28 v 1.28 1.28 h 1.28 1.28 z m 4.79999,0 v -1.28 H 223.04 221.76 v 1.28 1.28 h 1.28 1.27999 z m -105.50212,45.94645 c -6.55407,-1.25096 -13.84534,-4.85672 -20.039211,-9.91 l -1.861338,-1.51858 -1.498662,1.21353 c -0.824263,0.66745 -3.715156,3.06052 -6.424205,5.31794 -4.279156,3.56578 -5.056048,4.0917 -5.92,4.00753 -0.808876,-0.0788 -1.012849,-0.25589 -1.093019,-0.94897 -0.05421,-0.46866 0.485791,-3.94641 1.2,-7.72835 0.71421,-3.78194 1.30112,-7.35849 1.304246,-7.9479 0.0031,-0.58941 -0.458817,-4.33282 -1.026537,-8.31869 -1.473351,-10.34416 -1.295369,-10.443 6.460854,-3.58816 9.832292,8.68964 12.310272,10.67546 13.317392,10.67235 0.64395,-0.002 1.49599,-0.49361 2.82106,-1.62777 5.40799,-4.62882 9.35627,-6.43842 15.30077,-7.01276 3.79979,-0.36713 4.72078,-0.12049 4.72078,1.2642 0,1.27475 -0.72998,1.61918 -3.43173,1.61918 -5.02636,0 -9.87144,2.20074 -15.06037,6.84075 L 105.57581,164.8 h -2.20892 -2.20892 l -2.394575,-1.92634 c -1.317014,-1.05948 -4.673557,-3.92485 -7.458984,-6.36748 -2.785427,-2.44263 -5.10457,-4.40363 -5.15365,-4.35776 -0.04908,0.0459 0.265748,2.5642 0.699618,5.59631 l 0.788855,5.51293 -0.946267,5.17117 c -0.520447,2.84414 -1.033836,5.45107 -1.140865,5.79318 -0.1241,0.39668 0.718791,-0.13354 2.326649,-1.46357 1.386686,-1.14707 3.858713,-3.19098 5.493394,-4.54201 1.634681,-1.35104 3.218681,-2.45626 3.52,-2.45604 0.301319,2.1e-4 1.627853,0.8871 2.947853,1.97085 6.670202,5.4764 13.444432,8.91006 19.840002,10.05629 9.85446,1.76615 19.95108,-2.68237 27.11943,-11.94868 l 1.96343,-2.53808 -0.99303,-1.25039 c -0.54617,-0.68771 -2.08581,-2.37524 -3.42143,-3.75006 -10.96194,-11.28369 -22.79823,-12.01195 -36.41736,-2.24067 -1.36932,0.98244 -3.06363,2.27754 -3.76513,2.878 -0.95056,0.81365 -1.52132,1.06762 -2.24068,0.99704 -0.82719,-0.0811 -0.97937,-0.24074 -1.0641,-1.11585 -0.0903,-0.93251 0.11803,-1.19406 2.4,-3.01319 5.33804,-4.25536 10.18146,-6.93928 15.29887,-8.47766 3.98516,-1.198 9.91942,-1.27581 13.76,-0.1804 4.65718,1.32832 9.55912,4.36266 13.77942,8.52957 2.56984,2.53733 5.90058,6.77505 5.90058,7.50734 0,0.93326 -2.43175,4.31687 -5.24169,7.29345 -4.65157,4.92743 -9.88549,8.21936 -15.39831,9.68494 -3.29786,0.87673 -9.32017,1.11852 -12.54213,0.50356 z m 15.48094,-15.05007 c -1.6732,-0.59674 -2.40061,-1.33184 -2.80537,-2.83502 -0.88158,-3.27393 2.29976,-6.20904 5.72232,-5.27941 3.94307,1.071 4.55076,6.30911 0.92302,7.95617 -1.5791,0.71693 -2.20157,0.74258 -3.83997,0.15826 z m 2.98905,-3.22586 c 0.31062,-0.37427 0.32146,-0.67553 0.046,-1.28 -0.60324,-1.32397 -2.9339,-0.93514 -2.9339,0.48948 0,1.2161 2.06543,1.78149 2.88786,0.79052 z"
       id="path1" />
  </g>
</svg>
